<svg xmlns="http://www.w3.org/2000/svg" fill="none" viewBox="0 0 19 16"><path fill="#000" d="M9.64.14c-2.15 0-4.58.8-5.09 3.42-.05.27.17.41.34.47l2.2.22c.2 0 .37-.2.4-.42.2-.89.96-1.33 1.84-1.33.45 0 .99.17 1.27.58.31.45.29 1.09.29 1.61v.28c-1.3.14-3.03.25-4.27.78a3.79 3.79 0 0 0-2.4 3.64c0 2.3 1.46 3.47 3.39 3.47 1.6 0 2.48-.36 3.73-1.61.42.58.56.86 1.3 1.47.17.09.37.09.54-.05l1.72-1.48c.2-.13.14-.38 0-.6-.42-.56-.85-1.03-.85-2.06V5.08c0-1.47.12-2.83-.99-3.83C12.2.42 10.74.14 9.64.14Zm1.22 6.64v.47c0 .86.03 1.58-.43 2.36-.36.64-.93 1-1.58 1-.88 0-1.39-.64-1.39-1.61.03-1.89 1.76-2.22 3.4-2.22Zm6.47 5a3.4 3.4 0 0 0-1.98.55c-.17.11-.14.3.06.28.65-.08 2.1-.25 2.35.08.25.34-.29 1.64-.54 2.25-.09.2.08.25.25.12 1.08-.9 1.36-2.75 1.13-3-.08-.14-.62-.28-1.27-.28Zm-16.9.36c-.12.03-.18.17-.03.3a13.58 13.58 0 0 0 9.1 3.42c2.52 0 5.43-.78 7.44-2.25.34-.25.05-.61-.29-.47A18.38 18.38 0 0 1 .6 12.17c-.02-.03-.08-.03-.1-.03H.41Z"/></svg>
