<svg xmlns="http://www.w3.org/2000/svg" fill="none" viewBox="0 0 15 19"><g clip-path="url(#a)"><path fill="#000" d="M14.69 14.8a11 11 0 0 1-.96 1.84 9.1 9.1 0 0 1-1.24 1.6c-.49.48-1.02.72-1.58.74-.4 0-.9-.12-1.46-.37a3.98 3.98 0 0 0-1.58-.38c-.5 0-1.04.13-1.62.38a4.1 4.1 0 0 1-1.4.39c-.54.02-1.08-.23-1.62-.77A11.7 11.7 0 0 1 .58 13.7 11.22 11.22 0 0 1 0 10.26c0-1.27.26-2.37.77-3.3.41-.73.95-1.31 1.63-1.74.67-.43 1.4-.65 2.19-.66.43 0 1 .14 1.7.42.7.28 1.14.42 1.34.42.15 0 .65-.16 1.5-.5.8-.3 1.47-.43 2.02-.38 1.5.13 2.62.76 3.37 1.9-1.34.86-2 2.07-1.99 3.63a4.14 4.14 0 0 0 1.24 3.02c.36.37.77.66 1.23.87-.1.3-.2.6-.31.88ZM11.25.39a4.2 4.2 0 0 1-.97 2.66c-.79.98-1.73 1.54-2.76 1.45A4.32 4.32 0 0 1 9.79.44c.5-.27.99-.41 1.44-.44l.02.38Z"/></g><defs><clipPath id="a"><path fill="#fff" d="M0 0h15v19H0z"/></clipPath></defs></svg>
